<?xml version="1.0" standalone="no"?>
<!DOCTYPE svg PUBLIC "-//W3C//DTD SVG 20010904//EN"
 "http://www.w3.org/TR/2001/REC-SVG-20010904/DTD/svg10.dtd">
<svg version="1.0" xmlns="http://www.w3.org/2000/svg"
 width="225.000000pt" height="225.000000pt" viewBox="0 0 225.000000 225.000000"
 preserveAspectRatio="xMidYMid meet">
<metadata>
Created by potrace 1.11, written by Peter Selinger 2001-2013
</metadata>
<g transform="translate(0.000000,225.000000) scale(0.100000,-0.100000)"
fill="#000000" stroke="none">
<path d="M989 2226 c-58 -20 -142 -69 -175 -101 -29 -28 -86 -111 -103 -149
-36 -83 -39 -105 -40 -342 l-1 -160 -62 2 c-35 1 -66 2 -69 3 -3 0 -5 27 -4
59 2 71 -6 94 -38 111 -20 11 -29 11 -54 -3 -17 -8 -32 -23 -34 -33 -7 -31 -3
-545 5 -597 31 -219 196 -440 397 -534 55 -25 74 -42 48 -42 -20 0 -123 -68
-170 -112 -86 -81 -169 -209 -169 -261 0 -15 10 -35 22 -47 21 -20 32 -20 583
-20 551 0 562 0 583 20 12 12 22 32 22 46 0 49 -73 168 -151 246 -50 50 -163
128 -186 128 -28 0 -10 17 46 43 136 62 259 186 330 331 69 142 75 182 75 514
0 324 0 325 -64 325 -50 0 -64 -23 -65 -106 l-1 -72 -67 -2 -67 -1 -1 176 c0
98 -3 191 -5 207 -6 45 -44 146 -67 180 -59 88 -184 180 -272 201 -75 17 -180
13 -246 -10z m-323 -888 c2 -3 6 -68 8 -144 2 -100 8 -153 21 -188 61 -174
217 -293 404 -310 195 -17 407 135 460 329 18 67 19 86 20 205 l1 115 68 0 67
-1 0 -133 c0 -194 -22 -286 -95 -400 -85 -132 -205 -217 -360 -257 -87 -22
-241 -15 -324 15 -192 68 -342 235 -387 429 -13 57 -19 335 -7 343 9 6 117 3
124 -3z"/>
</g>
</svg>
