<?xml version="1.0" standalone="no"?>
<!DOCTYPE svg PUBLIC "-//W3C//DTD SVG 20010904//EN"
 "http://www.w3.org/TR/2001/REC-SVG-20010904/DTD/svg10.dtd">
<svg version="1.0" xmlns="http://www.w3.org/2000/svg"
 width="236.000000pt" height="236.000000pt" viewBox="0 0 236.000000 236.000000"
 preserveAspectRatio="xMidYMid meet">
<metadata>
Created by potrace 1.11, written by Peter Selinger 2001-2013
</metadata>
<g transform="translate(0.000000,236.000000) scale(0.100000,-0.100000)"
fill="#000000" stroke="none">
<path d="M0 1180 l0 -1180 1175 0 1175 0 0 1180 0 1180 -1175 0 -1175 0 0
-1180z m1133 1033 c-7 -2 -21 -2 -30 0 -10 3 -4 5 12 5 17 0 24 -2 18 -5z
m-56 -9 c-3 -3 -12 -4 -19 -1 -8 3 -5 6 6 6 11 1 17 -2 13 -5z m-57 -14 c-8
-5 -19 -10 -25 -10 -5 0 -3 5 5 10 8 5 20 10 25 10 6 0 3 -5 -5 -10z m-45 -20
c-3 -5 -20 -16 -38 -25 -38 -18 -173 -142 -170 -156 2 -5 -3 -9 -11 -9 -15 0
-56 -60 -107 -157 -18 -34 -35 -60 -38 -58 -10 10 91 191 130 233 21 24 39 47
39 52 0 10 178 130 192 130 5 0 6 -4 3 -10z m-120 -200 c3 -5 1 -10 -4 -10 -6
0 -11 5 -11 10 0 6 2 10 4 10 3 0 8 -4 11 -10z m415 0 c-8 -5 -23 -10 -33 -10
-10 0 -48 -14 -85 -32 -76 -36 -166 -123 -213 -203 -20 -35 -29 -44 -29 -29 0
31 70 134 121 178 69 60 163 104 224 105 23 1 26 -2 15 -9z m372 -102 c-7 -7
-12 -8 -12 -2 0 6 3 14 7 17 3 4 9 5 12 2 2 -3 -1 -11 -7 -17z m-637 -218 c14
-7 8 -8 -20 -3 -22 3 -42 7 -44 9 -9 8 45 2 64 -6z m-25 -140 c0 -5 -4 -10
-10 -10 -5 0 -10 5 -10 10 0 6 5 10 10 10 6 0 10 -4 10 -10z m632 -342 c-39
-87 -161 -179 -237 -177 l-30 0 36 14 c78 29 131 73 212 179 36 47 44 40 19
-16z m-542 -168 c0 -5 -5 -10 -11 -10 -5 0 -7 5 -4 10 3 6 8 10 11 10 2 0 4
-4 4 -10z m-240 -93 c0 -17 -48 -63 -56 -54 -9 9 28 67 43 67 7 0 13 -6 13
-13z m876 -54 c-10 -10 -19 5 -10 18 6 11 8 11 12 0 2 -7 1 -15 -2 -18z m-976
-74 c0 -6 -4 -7 -10 -4 -5 3 -10 11 -10 16 0 6 5 7 10 4 6 -3 10 -11 10 -16z
m540 -519 c0 -5 -7 -10 -15 -10 -8 0 -15 5 -15 10 0 6 7 10 15 10 8 0 15 -4
15 -10z m14 -209 c11 -17 -20 -32 -45 -22 l-24 9 25 10 c32 14 38 14 44 3z"/>
</g>
</svg>
