<?xml version="1.0" standalone="no"?>
<!DOCTYPE svg PUBLIC "-//W3C//DTD SVG 20010904//EN"
 "http://www.w3.org/TR/2001/REC-SVG-20010904/DTD/svg10.dtd">
<svg version="1.0" xmlns="http://www.w3.org/2000/svg"
 width="225.000000pt" height="225.000000pt" viewBox="0 0 225.000000 225.000000"
 preserveAspectRatio="xMidYMid meet">
<metadata>
Created by potrace 1.11, written by Peter Selinger 2001-2013
</metadata>
<g transform="translate(0.000000,225.000000) scale(0.100000,-0.100000)"
fill="#000000" stroke="none">
<path d="M1036 1929 c-78 -10 -116 -26 -168 -69 -51 -42 -78 -103 -77 -171 1
-36 3 -46 8 -29 4 15 14 26 26 27 19 1 19 1 3 -11 -10 -7 -18 -16 -18 -20 0
-3 8 -6 18 -7 10 0 12 -3 5 -6 -21 -8 -16 -36 5 -29 15 5 15 5 1 -6 -20 -16
-13 -39 9 -32 15 5 15 4 0 -6 -10 -6 -18 -17 -18 -25 0 -7 8 -12 18 -10 9 1
11 0 5 -2 -7 -3 -13 -13 -13 -23 0 -14 5 -18 18 -13 15 5 14 4 -2 -9 -22 -17
-14 -40 12 -32 16 5 16 5 0 -6 -10 -6 -18 -17 -18 -25 0 -9 6 -12 18 -9 16 5
16 5 0 -6 -10 -6 -18 -15 -18 -20 0 -5 8 -7 18 -3 14 5 15 3 5 -8 -18 -19 -30
-3 -42 56 l-10 50 5 -63 c9 -107 38 -154 105 -172 32 -9 37 -14 43 -49 3 -23
18 -52 36 -71 30 -33 31 -33 12 -54 -73 -80 -67 -209 12 -257 40 -24 56 -24
56 1 0 11 -7 20 -14 20 -27 0 -66 64 -66 106 0 39 48 134 67 134 5 0 9 -30 9
-67 1 -38 5 -133 9 -212 6 -117 5 -145 -6 -152 -22 -14 18 -11 81 5 57 15 81
13 39 -2 -39 -15 -168 -34 -185 -28 -8 3 -13 2 -10 -2 3 -5 -11 -14 -30 -21
-18 -7 -34 -17 -34 -22 0 -6 -4 -8 -9 -5 -11 7 -21 -17 -21 -50 0 -18 -5 -24
-21 -24 -12 0 -39 -10 -60 -22 -37 -20 -39 -25 -39 -68 0 -58 16 -74 102 -102
91 -30 305 -36 418 -14 91 19 154 46 164 71 12 34 6 82 -14 100 -30 27 -126
55 -212 62 l-78 6 0 43 c0 41 2 44 44 63 50 22 66 44 66 94 0 45 -32 85 -75
93 l-35 6 0 149 c0 141 1 149 20 149 24 0 38 26 46 83 6 39 11 46 51 67 58 31
94 79 100 133 5 47 -51 438 -67 468 -26 47 -152 68 -294 48z m93 -31 c12 -12
23 -30 27 -40 3 -10 10 -16 15 -12 6 3 2 20 -10 40 -17 28 -18 34 -5 34 8 0
24 -16 36 -37 23 -37 38 -31 18 7 -6 12 -9 24 -6 27 8 8 46 -27 46 -43 0 -7 5
-16 12 -20 8 -5 9 2 5 26 -7 32 -7 32 16 18 12 -9 28 -26 34 -39 12 -22 10
-25 -15 -31 -15 -3 -65 -11 -112 -17 -47 -5 -94 -12 -105 -16 -19 -6 -19 -6
-1 6 11 6 56 18 100 25 l81 14 -68 -5 c-37 -3 -78 -10 -91 -15 -20 -7 -25 -5
-35 16 -6 14 -15 23 -20 20 -4 -3 -16 3 -26 14 -10 11 -23 20 -28 20 -5 0 2
-9 16 -20 14 -11 29 -30 33 -42 5 -17 8 -18 16 -7 7 10 8 8 5 -9 -10 -45 -1
-50 56 -35 58 15 121 17 113 4 -3 -4 -32 -11 -64 -14 -32 -4 -66 -9 -75 -13
-23 -9 -22 -37 1 -30 20 7 121 26 133 26 5 0 9 -4 9 -10 0 -5 -15 -10 -32 -11
-59 -2 -128 -23 -120 -36 6 -9 18 -10 42 -4 61 16 120 22 120 12 0 -5 -36 -14
-81 -21 l-81 -13 6 -29 c10 -52 29 -209 25 -212 -2 -2 -20 -6 -39 -10 l-35 -6
33 17 c17 9 32 21 32 26 0 5 -15 7 -32 4 l-33 -6 28 15 c38 20 35 37 -5 29
l-33 -6 28 16 c37 22 35 38 -5 30 l-33 -6 28 16 c15 9 27 22 27 30 0 11 -6 12
-27 5 -28 -10 -28 -10 -5 6 33 24 29 46 -5 34 -28 -10 -28 -10 -5 6 12 9 22
23 22 31 0 10 -7 12 -22 8 l-23 -7 23 17 c26 19 20 38 -11 30 l-22 -6 22 18
c25 20 18 49 -7 33 -28 -18 -35 -10 -8 8 24 16 25 19 13 48 -26 63 -69 80
-123 48 l-27 -16 28 26 c15 14 39 26 52 26 13 0 27 5 30 10 3 6 20 10 37 10
22 0 40 -10 65 -36 42 -45 52 -40 18 9 -28 42 -11 53 24 15z m201 -108 c0 -5
-14 -10 -31 -10 -17 0 -28 4 -24 10 3 6 17 10 31 10 13 0 24 -4 24 -10z m10
-40 c0 -5 -15 -10 -32 -10 -25 0 -29 3 -18 10 20 13 50 13 50 0z m-402 -171
c27 -165 33 -219 23 -194 -7 18 -44 227 -56 325 -11 86 15 -16 33 -131z m-23
-12 c14 -87 25 -168 23 -180 -3 -23 -42 182 -54 288 -12 109 4 53 31 -108z
m435 139 c0 -2 -13 -6 -30 -8 -16 -3 -30 -1 -30 4 0 4 14 8 30 8 17 0 30 -2
30 -4z m-18 -48 c-17 -8 -26 -8 -34 0 -9 9 -4 12 23 11 32 0 33 -1 11 -11z
m-87 -7 c-27 -11 -152 -25 -143 -16 11 12 69 23 118 23 33 1 39 -2 25 -7z
m115 -31 c0 -5 -13 -10 -30 -10 -16 0 -30 5 -30 10 0 6 14 10 30 10 17 0 30
-4 30 -10z m-104 -9 c-3 -4 -29 -11 -58 -14 -29 -3 -61 -8 -70 -12 -10 -4 -18
-3 -18 3 0 12 67 29 118 31 18 1 31 -3 28 -8z m104 -31 c0 -5 -11 -10 -25 -10
-14 0 -25 5 -25 10 0 6 11 10 25 10 14 0 25 -4 25 -10z m-90 -9 c0 -4 -24 -11
-52 -14 -29 -4 -63 -9 -75 -13 -14 -4 -23 -2 -23 4 0 6 24 15 53 20 70 13 97
14 97 3z m95 -31 c4 -6 -7 -10 -27 -9 -31 1 -32 1 -8 9 14 4 26 8 27 9 1 1 5
-3 8 -9z m-91 -9 c3 -4 -16 -11 -42 -14 -26 -3 -63 -9 -82 -13 -25 -5 -32 -4
-25 4 6 7 35 16 65 21 75 12 78 12 84 2z m6 -40 c0 -4 -34 -15 -75 -23 -41 -8
-75 -11 -75 -6 0 8 55 24 105 31 17 2 33 5 38 6 4 0 7 -3 7 -8z m99 5 c-12
-10 -59 -15 -59 -6 0 5 14 10 32 10 17 0 29 -2 27 -4z m-9 -46 c-20 -13 -40
-13 -40 0 0 6 12 10 28 10 21 0 24 -2 12 -10z m-80 -4 c0 -2 -29 -9 -65 -15
-36 -6 -72 -14 -80 -17 -8 -4 -15 -1 -15 4 0 6 19 15 43 20 43 10 117 15 117
8z m90 -48 c0 -21 0 -21 -15 -2 -14 18 -14 18 -15 -4 0 -26 -29 -87 -37 -79
-2 3 0 14 6 25 14 26 14 62 1 62 -5 0 -10 -9 -10 -20 0 -24 -29 -84 -37 -77
-2 3 0 14 6 25 14 26 14 75 1 67 -5 -3 -10 -16 -10 -28 0 -12 -10 -35 -21 -52
-12 -16 -18 -21 -14 -10 5 11 10 36 12 55 l3 35 -15 -40 c-9 -22 -23 -47 -31
-55 -14 -13 -14 -12 0 17 18 36 21 73 6 73 -5 0 -10 -9 -10 -21 0 -23 -30 -79
-42 -79 -4 0 0 12 8 28 16 31 18 62 4 62 -5 0 -10 -9 -10 -21 0 -30 -38 -79
-62 -79 -19 0 -18 2 6 31 14 17 26 39 26 50 0 24 34 38 120 49 118 14 130 13
130 -12z m-328 -98 c-26 -25 -41 -30 -80 -30 -29 0 -56 6 -68 16 -18 14 -18
15 5 3 36 -17 118 -6 144 20 12 11 24 21 27 21 3 0 -10 -14 -28 -30z m178 -67
c0 -52 -9 -81 -27 -87 -12 -5 -14 2 -11 39 3 43 2 45 -24 45 -23 0 -28 -4 -28
-24 0 -40 -18 -76 -38 -76 -15 0 -18 10 -20 64 l-1 65 32 4 c17 2 51 5 75 5
l42 2 0 -37z m-170 -35 c0 -6 -7 -5 -15 2 -13 11 -15 8 -15 -14 0 -27 15 -35
23 -13 3 7 6 6 6 -5 1 -23 -17 -32 -34 -18 -18 15 -19 52 -3 68 12 12 38 -1
38 -20z m-48 -188 c-29 -59 -25 -103 16 -151 22 -27 23 -30 5 -21 -25 14 -53
70 -53 107 0 25 21 76 42 103 18 21 16 13 -10 -38z m121 -258 c-1 -46 -4 -87
-7 -90 -3 -3 -5 64 -4 149 1 111 3 136 7 89 4 -36 6 -103 4 -148z m131 -2 c9
-47 -9 -76 -50 -77 l-34 -1 0 60 0 61 30 -7 c23 -4 29 -3 24 7 -6 9 -4 9 8 -1
9 -7 18 -26 22 -42z m-165 -207 c-1 -32 -4 -47 -6 -34 -4 22 -8 23 -56 18 -29
-4 -63 -9 -77 -13 -14 -3 -21 -2 -15 3 6 4 15 17 21 28 13 25 71 55 107 55 26
0 27 -1 26 -57z m276 -166 c-51 -18 -84 -21 -220 -21 -100 -1 -182 4 -218 12
-78 18 -66 27 14 11 90 -17 341 -15 404 4 75 22 89 18 20 -6z"/>
<path d="M802 1590 c0 -19 2 -27 5 -17 2 9 2 25 0 35 -3 9 -5 1 -5 -18z"/>
<path d="M812 1520 c0 -19 2 -27 5 -17 2 9 2 25 0 35 -3 9 -5 1 -5 -18z"/>
<path d="M1048 633 c7 -3 16 -2 19 1 4 3 -2 6 -13 5 -11 0 -14 -3 -6 -6z"/>
</g>
</svg>
